<?xml version="1.0" encoding="UTF-8"?>
<svg version="1.1" xmlns="http://www.w3.org/2000/svg" width="256" height="256">
<path d="M0 0 C2.87508126 -0.03051383 5.7498343 -0.05276062 8.625 -0.0703125 C9.43324219 -0.07973877 10.24148437 -0.08916504 11.07421875 -0.09887695 C22.52271643 -0.15123289 32.39729803 3.01509471 41.00390625 10.81640625 C54.41041754 25.14950148 54.46920113 43.19558788 54.43359375 61.63671875 C54.43816656 63.72736275 54.44347536 65.81800525 54.44947815 67.90864563 C54.45837091 72.27501559 54.45603164 76.64120229 54.44604492 81.00756836 C54.43458533 86.55350548 54.45474075 92.09880297 54.48396206 97.64465618 C54.50247309 101.9594564 54.50200177 106.27410772 54.49632454 110.58893776 C54.49617301 112.63110053 54.50207539 114.67327452 54.51461601 116.71539879 C54.63348909 139.2490272 51.63877281 160.63247847 35.6875 177.75 C22.52079018 190.21292132 4.82816999 193.3789603 -12.671875 193.1953125 C-13.60338379 193.19329834 -14.53489258 193.19128418 -15.49462891 193.18920898 C-18.91313737 193.17889043 -22.33157462 193.15097029 -25.75 193.125 C-33.4225 193.08375 -41.095 193.0425 -49 193 C-49 174.19 -49 155.38 -49 136 C-34.0625 135.6875 -34.0625 135.6875 -29.40649414 135.61206055 C-16.90440315 135.29262056 -16.90440315 135.29262056 -6.0625 129.625 C-0.31276284 122.30715271 -0.84279276 113.55792501 -0.79467773 104.67041016 C-0.78477814 103.53811981 -0.77487854 102.40582947 -0.76467896 101.23922729 C-0.73315408 97.50586012 -0.70834211 93.77248023 -0.68359375 90.0390625 C-0.66301645 87.44688592 -0.64201977 84.85471265 -0.62062073 82.26254272 C-0.57111272 76.14288505 -0.52582671 70.02320955 -0.48259836 63.90350473 C-0.43312855 56.9336978 -0.37824672 49.96393674 -0.32291877 42.99417424 C-0.20927329 28.66282595 -0.10239664 14.33143286 0 0 Z " fill="#DEA9C6" transform="translate(192,58)"/>
<path d="M0 0 C16.83 0 33.66 0 51 0 C51 17.16 51 34.32 51 52 C66.18 52 81.36 52 97 52 C97 69.49 97 86.98 97 105 C81.82 105 66.64 105 51 105 C51 121.5 51 138 51 155 C34.17 155 17.34 155 0 155 C0 138.5 0 122 0 105 C-9.24 105 -18.48 105 -28 105 C-28 87.51 -28 70.02 -28 52 C-18.76 52 -9.52 52 0 52 C0 34.84 0 17.68 0 0 Z " fill="#FAC9B6" transform="translate(36,6)"/>
<path d="M0 0 C16.83 0 33.66 0 51 0 C51.66 4.95 52.32 9.9 53 15 C55.06482905 20.34007512 56.92268548 24.19127282 62 27 C70.77129883 29.42380624 79.66404465 29.23706797 88.6875 29.125 C95.7721875 29.063125 95.7721875 29.063125 103 29 C103 48.14 103 67.28 103 87 C90.4084375 87.12375 90.4084375 87.12375 77.5625 87.25 C74.95029541 87.28641602 72.33809082 87.32283203 69.64672852 87.36035156 C47.77379921 87.53883545 28.61012547 85.14897007 12.15234375 69.3046875 C-0.85482867 55.37686222 -0.54357348 39.67277248 -0.25 21.6875 C-0.1675 14.530625 -0.085 7.37375 0 0 Z " fill="#F27C9A" transform="translate(36,164)"/>
<path d="M0 0 C17.16 0 34.32 0 52 0 C52 17.49 52 34.98 52 53 C34.84 53 17.68 53 0 53 C0 35.51 0 18.02 0 0 Z " fill="#DFAAC7" transform="translate(136,58)"/>
<path d="M0 0 C16.83 0 33.66 0 51 0 C51 17.16 51 34.32 51 52 C34.17 52 17.34 52 0 52 C0 34.84 0 17.68 0 0 Z " fill="#F27C9A" transform="translate(36,6)"/>
</svg>
